<?xml version="1.0" encoding="UTF-8"?>
<svg id="Capa_1" data-name="Capa 1" xmlns="http://www.w3.org/2000/svg" viewBox="0 0 1300.49 1299.99">
  <defs>
    <style>
      .cls-1 {
        fill: #ed1e79;
        font-family: Chewy-Regular, Chewy;
        font-size: 1078.77px;
      }

      .cls-2 {
        fill: #1a1a1a;
      }
    </style>
  </defs>
  <text class="cls-1" transform="translate(890.7 927.37) rotate(12.49) scale(.93 1) skewX(1.87)"><tspan x="0" y="0">i</tspan></text>
  <g>
    <path class="cls-2" d="m692.6,156.22s10.61,402.7,10.62,402.79c-.04.21-80.72,359.03-80.77,359.28,0,0-7.61-1.75-7.61-1.75.03.05,84.18-360.08,83.82-357.7.88-.02-8.86-404.55-6.06-402.61h0Z"/>
    <path class="cls-2" d="m1052.59,147.33c-32.28,86.24-91.7,158.05-152.68,225.47-61.29,66.92-125.66,131.84-198.98,185.98,95.99,41.13,183.14,123.86,246.42,205.07,40.66,53.16,67.29,121.02,62.91,189.5,0,0-.79.62-.79.62-7.12-1.06-13.56-2.65-19.86-4.36-17.54-4.88-34.89-12.1-50.46-20.2-59.2-30.17-99.57-78.89-135.49-132.71-41.59-61.67-76.71-130.7-95.78-203.56-2.8-11.07-5.33-22.36-6.95-34.35,15.61-31.03,33.47-59.96,52.24-88.83,30.99-47.36,64.75-92.98,100.06-136.97,28.4-35.12,57.1-69.92,89.52-101.5,24.37-23.88,50.62-46.47,78.89-66.1,9.61-6.63,19.47-13.03,30.19-18.71,0,0,.76.65.76.65h0Z"/>
  </g>
  <path class="cls-2" d="m.95,218.2c23.76,40.77,44.73,83.32,65.11,125.76,59.88,124.93,110.49,255.38,164.4,382.84,13.48,31.15,27.2,61.77,42.41,91.75,9.55,18.66,19.35,36.99,31.09,53.94,4.05,5.76,7.28,10.11,11.83,14.65.36.35.88.79,1.14,1.06-.17-.03-.35-.2-.53-.27,0,0-.13-.05-.13-.05-11.77-5.95-28.65-2.4-36.8,7.6-.11.16-.18.25-.24.33-.06.08-.13.2-.17.26-.06.07-.14.25-.13.23.21-.13.69-1.05,1.29-2.3,5.14-11.53,8.05-26.28,10.74-39.29,3.49-18.4,8.16-47.69,11.02-66.82,5.84-36.6,11.21-72.63,21.94-108.77,11.25-38.19,33.09-82.11,78.17-86.8,38.57-3.9,67.36,24.2,87.64,52.96,34.22,49.48,56.86,105.62,85.02,158.16,10.06,18.46,20.04,36.93,33.35,52.65,3.5,4,6.02,6.25,8.98,8.32.04.04.07.09.04.05-.03-.02-.07-.01-.11.02,0,0-.03.03-.03.03,0,0-.11-.04-.11-.04-.07-.02-.15-.04-.23-.04-.23.08-.84-.12-1.32.03-1.07-.02-2.34.38-3.28.83-.74.4-.79.63-.39.39.79-.58,1.45-1.22,2.13-2.01,3.91-4.72,6.33-9.55,9.16-15.75,6.27-14.35,10.58-29.42,14.42-45.12,18.02-78.01,24.61-158.13,31.38-238.13,11.24-138.54,14.16-279.47,22.57-418.26,11.5,90.43,13.33,186.92,16.36,279.67,2.13,93.91,2.67,187.34-3.89,281.32-3.8,48.36-8.32,96.4-21.51,143.49-6.37,21.19-14.93,44.11-32.08,59.58-19.87,17.71-45.99,18.07-68.09,3.69-34.39-22.59-61.92-74.05-82.83-108.64-17.6-30.12-34.01-59.62-52.98-88-6.06-9.02-12.28-17.62-18.54-25.2-5.23-6.37-11.6-13.18-17.6-17.33,0,0-.83-.52-.83-.52-.27-.18-.55-.38-.76-.45-.22-.11-.44-.22-.65-.34l-.31-.18s-.23-.06-.23-.06c-.18-.06-.35-.11-.52-.21-.05,0-.08.04-.13.04-.05.01-.09,0-.11,0,.05.08.11.15.18.19.06-.01.54.34.9.37,3.06,1,7.61.2,10.18-1.26.82-.43,1.08-.59,1.02-.38-2.2,3.68-5.07,10.67-6.71,16.32-4.28,14.24-6.84,28.72-9.13,44.22-4.86,33.69-7.45,67.99-11.26,102.17-2.98,25.61-5.78,49.51-12.61,75.7-3.22,12.08-8,25.95-15.2,37.84-20.37,34.49-59.61,47.18-95.68,27.85-30.09-16.26-51.61-50.25-68.36-78.82-24.57-43.34-43.36-86.72-61.82-132.22-35.39-87.85-64.36-177.2-87.78-268.65C30.08,416.83,13.46,335.88,3.52,254.03c-1.36-11.79-2.67-23.59-3.52-35.53,0,0,.95-.3.95-.3h0Z"/>
</svg>